<svg width="32" height="33" viewBox="0 0 32 33" fill="none" xmlns="http://www.w3.org/2000/svg">
<g clip-path="url(#clip0_316_487)">
<path d="M16 1.00588C7.161 1.00588 0 8.17288 0 17.0058C0 24.0789 4.584 30.0739 10.937 32.1889C11.74 32.3399 12.03 31.8449 12.03 31.4169C12.03 31.0369 12.021 30.0319 12.015 28.6979C7.562 29.6618 6.624 26.5469 6.624 26.5469C5.895 24.7029 4.843 24.2079 4.843 24.2079C3.395 23.2189 4.958 23.2399 4.958 23.2399C6.562 23.3489 7.406 24.8849 7.406 24.8849C8.83299 27.3329 11.15 26.6249 12.067 26.2129C12.207 25.1819 12.624 24.4729 13.078 24.0778C9.52602 23.6769 5.791 22.3018 5.791 16.1709C5.791 14.4199 6.411 12.9939 7.436 11.8739C7.259 11.4729 6.717 9.84288 7.577 7.63889C7.577 7.63889 8.91604 7.21188 11.977 9.27991C13.2809 8.92524 14.6258 8.74337 15.977 8.73888C17.337 8.74787 18.696 8.92585 19.977 9.27991C23.02 7.21188 24.358 7.63889 24.358 7.63889C25.217 9.84288 24.675 11.4719 24.519 11.8739C25.534 12.9939 26.154 14.4209 26.154 16.1709C26.154 22.3159 22.414 23.6709 18.858 24.0618C19.414 24.5409 19.935 25.5258 19.935 27.0209C19.935 29.1609 19.915 30.8849 19.915 31.4058C19.915 31.8218 20.195 32.3219 21.019 32.1609C27.419 30.0679 31.998 24.0679 31.998 17.0049C31.998 8.17188 24.837 1.00488 15.998 1.00488L16 1.00588Z" fill="#4B9B38"/>
</g>
<defs>
<clipPath id="clip0_316_487">
<rect width="32" height="32" fill="white" transform="translate(0 0.609863)"/>
</clipPath>
</defs>
</svg>
