<svg width="32" height="33" viewBox="0 0 32 33" fill="none" xmlns="http://www.w3.org/2000/svg">
<path fill-rule="evenodd" clip-rule="evenodd" d="M2.74286 3.35272V29.867H29.2571V3.35272H2.74286ZM0 3.25334C0 1.79339 1.18353 0.609863 2.64348 0.609863H29.3565C30.8165 0.609863 32 1.79339 32 3.25334V29.9664C32 31.4263 30.8165 32.6099 29.3565 32.6099H2.64348C1.18353 32.6099 0 31.4263 0 29.9664V3.25334Z" fill="#4B9B38"/>
<path fill-rule="evenodd" clip-rule="evenodd" d="M14.7279 12.6943C15.4853 12.6943 16.0993 13.3083 16.0993 14.0658V24.2422C16.0993 24.9996 15.4853 25.6136 14.7279 25.6136C13.9705 25.6136 13.3564 24.9996 13.3564 24.2422V14.0658C13.3564 13.3083 13.9705 12.6943 14.7279 12.6943Z" fill="#4B9B38"/>
<path fill-rule="evenodd" clip-rule="evenodd" d="M9.63949 12.6943C10.3969 12.6943 11.0109 13.3083 11.0109 14.0658V24.2422C11.0109 24.9996 10.3969 25.6136 9.63949 25.6136C8.88208 25.6136 8.26807 24.9996 8.26807 24.2422V14.0658C8.26807 13.3083 8.88208 12.6943 9.63949 12.6943Z" fill="#4B9B38"/>
<path fill-rule="evenodd" clip-rule="evenodd" d="M19.18 15.4372C18.363 15.4372 17.5794 15.7618 17.0016 16.3395C16.4239 16.9173 16.0993 17.7009 16.0993 18.5179C16.0993 19.2754 15.4853 19.8894 14.7279 19.8894C13.9705 19.8894 13.3564 19.2754 13.3564 18.5179C13.3564 16.9734 13.97 15.4922 15.0621 14.4C16.1543 13.3079 17.6355 12.6943 19.18 12.6943C20.7246 12.6943 22.2058 13.3079 23.298 14.4C24.3901 15.4922 25.0036 16.9734 25.0036 18.5179V24.2422C25.0036 24.9996 24.3896 25.6136 23.6322 25.6136C22.8748 25.6136 22.2608 24.9996 22.2608 24.2422V18.5179C22.2608 17.7009 21.9362 16.9173 21.3585 16.3395C20.7807 15.7618 19.9971 15.4372 19.18 15.4372Z" fill="#4B9B38"/>
<path d="M9.64001 10.8856C10.6938 10.8856 11.5481 10.0313 11.5481 8.97753C11.5481 7.92373 10.6938 7.06946 9.64001 7.06946C8.58621 7.06946 7.73193 7.92373 7.73193 8.97753C7.73193 10.0313 8.58621 10.8856 9.64001 10.8856Z" fill="#4B9B38"/>
</svg>
