<svg width="32" height="33" viewBox="0 0 32 33" fill="none" xmlns="http://www.w3.org/2000/svg">
<path d="M26.6665 29.9432H5.33317C4.62592 29.9432 3.94765 29.6622 3.44756 29.1621C2.94746 28.662 2.6665 27.9837 2.6665 27.2765V12.6751C2.68867 12.2345 2.81821 11.8058 3.04385 11.4265C3.2695 11.0473 3.5844 10.7289 3.96117 10.4991L14.6278 4.09917C15.0421 3.85076 15.5161 3.71954 15.9992 3.71954C16.4822 3.71954 16.9562 3.85076 17.3705 4.09917L28.0372 10.4991C28.8385 10.9832 29.3305 11.8498 29.3332 12.7858V27.2765C29.3332 27.9837 29.0523 28.662 28.5521 29.1621C28.052 29.6622 27.3738 29.9432 26.6665 29.9432ZM5.33317 13.7672V27.2765H26.6665V13.7672L15.9998 20.8778L5.33317 13.7672ZM15.9998 6.38584L7.08784 11.7325L15.9998 17.6738L24.9105 11.7325L15.9998 6.38584Z" fill="#4B9B38"/>
</svg>
