<svg width="129" height="129" viewBox="0 0 129 129" fill="none" xmlns="http://www.w3.org/2000/svg">
<path fill-rule="evenodd" clip-rule="evenodd" d="M0.399902 0.5H128.4V128.5H0.399902V0.5ZM69.8588 59.1666H58.2509V101.708C58.2509 102.963 57.1842 108.108 51.7882 107.857C46.3921 107.606 43.945 101.582 43.945 101.582L34.345 107.48C34.345 107.48 39.6784 118.398 50.4078 118.398C61.1372 118.398 69.8588 114.382 69.8588 101.708V59.1666ZM114.784 68.0765C110.75 61.0602 104.182 58.1466 97.3411 58.5392C90.5006 58.9318 80.5253 61.4977 80.2744 75.0412C80.0236 88.5846 96.5254 93.3 96.5254 93.3C103.404 96.1933 106.638 97.9064 106.439 101.833C105.695 106.657 102.486 107.92 98.345 107.92C94.2038 107.92 90.0899 106.061 86.298 100.641L76.7607 106.163C81.8623 114.234 87.8666 118.523 98.345 118.461C108.823 118.398 118.8 113.002 118.486 101.833C118.172 90.6647 112.776 87.7225 101.859 82.6333C94.663 79.8103 92.5097 78.5549 92.1333 75.0412C91.7568 71.5275 94.2038 68.8922 97.7176 68.8922C101.231 68.8922 103.772 70.7755 105.561 74.1L114.784 68.0765Z" fill="#F0E3CA"/>
</svg>
