<svg width="128" height="129" viewBox="0 0 128 129" fill="none" xmlns="http://www.w3.org/2000/svg">
<rect y="0.5" width="128" height="128" rx="64" fill="#F0E3CA"/>
<g clip-path="url(#clip0_316_430)">
<path fill-rule="evenodd" clip-rule="evenodd" d="M102.689 86.8209C102.689 86.8182 102.687 86.8156 102.684 86.8156C98.3358 86.6949 94.9619 87.141 92.1339 88.3306C91.8953 88.4265 91.6143 88.4942 91.3337 88.5679C90.1424 88.8808 90.1102 90.3764 90.7742 91.4137C91.4266 92.4959 92.5705 93.9538 93.6034 94.7101L97.085 97.1981C99.2068 98.4949 101.601 99.2523 103.668 100.55C104.865 101.308 106.061 102.281 107.259 103.093C107.835 103.502 108.197 104.153 108.878 104.45C108.937 104.476 109 104.431 109 104.367C109 104.346 108.993 104.326 108.981 104.31C108.697 103.933 108.566 103.433 108.346 102.978C108.221 102.72 108.027 102.504 107.82 102.306L107.24 101.75C106.745 101.276 106.296 100.757 105.861 100.227C104.406 98.4548 102.684 96.8919 100.838 95.5766C99.1011 94.3892 95.3073 92.7724 94.5875 90.779C94.5842 90.7699 94.5793 90.7616 94.5729 90.7543C94.5321 90.7083 94.5604 90.6352 94.6215 90.628C95.7844 90.489 97.1313 90.0893 98.2288 89.7776C100.08 89.2928 101.765 89.3995 103.668 88.9135L105.981 88.2429C106.159 88.1915 106.281 88.0289 106.281 87.8441C106.281 87.7335 106.236 87.6279 106.16 87.5481C105.242 86.5907 104.551 85.3619 103.562 84.4816C100.787 82.1026 97.7386 79.777 94.5826 77.8306C92.8961 76.7496 90.7193 76.0455 88.9243 75.1281C88.2694 74.8033 87.1829 74.6409 86.8024 74.1004C85.8208 72.9127 85.2781 71.3433 84.5708 69.9363L80.11 60.5282C79.1308 58.4195 78.5308 56.3108 77.3357 54.3645C71.7311 45.1722 65.6362 39.6035 56.278 34.1414C54.6149 33.2028 52.6911 32.7064 50.6367 32.2271C49.7657 32.0239 48.8779 31.8996 47.9848 31.8519C46.1739 31.755 44.5031 31.1637 43.0731 30.0486C42.9611 29.9613 42.8511 29.8815 42.7431 29.8125C39.642 27.8662 31.6436 23.6487 29.3571 29.2065C27.8876 32.7211 31.5338 36.181 32.7716 37.9662C33.6984 39.2096 34.8934 40.6154 35.5483 42.0212C35.9141 42.9399 36.0361 43.9142 36.4178 44.8874C37.2873 47.2664 38.1043 49.9168 39.2469 52.1346C39.8567 53.2701 40.4969 54.4615 41.2591 55.4879C42.1318 56.7027 42.1325 58.0398 41.8158 59.5016C41.6787 60.1344 41.5611 60.7845 41.3688 61.3826C39.4091 67.4931 40.1713 75.0626 42.9456 79.5612C43.8175 80.9125 45.8723 83.8877 48.66 82.751C51.1087 81.7778 50.5624 78.6959 51.2696 75.9922C51.4225 75.3901 51.3388 74.974 51.5868 74.5702C51.6056 74.5396 51.6501 74.5537 51.6501 74.5897C51.6501 74.5955 51.6515 74.6012 51.654 74.6064L53.8817 79.0862C55.5683 81.7354 58.5072 84.4937 60.9546 86.3334C62.2353 87.2885 63.2551 88.9219 64.8351 89.5435C64.8786 89.5606 64.9252 89.5282 64.9252 89.4814C64.9252 89.4442 64.8951 89.414 64.8578 89.414H64.8552C64.8319 89.414 64.8101 89.4023 64.7967 89.3833C64.4701 88.9199 63.9915 88.703 63.5655 88.333C62.5863 87.3599 61.4985 86.1698 60.7364 85.0887C58.4523 82.0614 56.4402 78.7081 54.6439 75.2481C53.772 73.572 53.0098 71.7335 52.305 70.0575C51.7523 68.9671 50.8491 68.8594 50.0779 69.8078C49.5898 70.408 49.1271 71.042 48.8197 71.7881C47.8015 74.0768 47.6818 76.8906 47.3152 79.8155C47.3048 79.8982 47.2114 79.9449 47.1408 79.9892C47.0743 80.031 47.029 80.0623 46.9536 80.04C45.3102 79.5558 44.7236 77.8193 44.087 76.3436C42.4553 72.5043 42.1822 66.3406 43.5968 61.9062C43.7747 61.3751 44.2269 60.3116 44.5911 59.2194C45.2612 57.2099 44.2032 55.3907 42.9443 53.687C42.2371 52.6593 41.4773 51.3626 40.9871 50.227C39.6823 47.1973 39.0299 43.8464 37.6141 40.8178C36.9592 39.412 35.8178 37.9516 34.8922 36.6549C33.8581 35.1946 32.7179 34.1669 31.9009 32.4375C31.6833 31.9526 31.3962 31.2395 31.5132 30.6411C31.5713 30.344 31.6826 30.0315 31.8815 29.8032C32.1617 29.4815 32.62 29.3383 33.0448 29.2993C33.9463 29.2166 35.3153 29.7475 35.8727 30.0015C37.8848 30.8135 39.5713 31.5697 41.2578 32.7041C41.863 33.1333 42.5028 33.8697 43.231 34.2907C43.5983 34.5031 44.0314 34.5438 44.4557 34.5438C44.791 34.5438 45.1247 34.5841 45.4562 34.6347C47.0664 34.8802 48.8119 34.7105 50.2892 35.1497C53.1732 36.0708 55.7841 37.4208 58.1255 38.8824C65.252 43.3701 71.1299 49.7508 75.1004 57.3761C75.7528 58.6195 76.0248 59.7551 76.6248 61.053C77.7686 63.7034 79.1832 66.406 80.3234 69.0031C81.4673 71.5445 82.555 74.1416 84.1867 76.2503C85.0037 77.3859 88.267 77.9797 89.7352 78.5747C90.8242 79.0595 92.5095 79.4958 93.4912 80.0896C95.3399 81.2252 97.1898 82.5231 98.93 83.7666C99.7931 84.409 102.482 85.7464 102.68 86.8211C102.68 86.8259 102.688 86.8257 102.689 86.8209ZM47.2039 39.8294C47.2039 39.8284 47.2032 39.8277 47.2022 39.8277C46.4688 39.8214 45.7375 39.9078 45.0261 40.085C44.9959 40.0925 44.9748 40.1197 44.9748 40.1509V40.1527C44.9748 40.1894 45.0045 40.2191 45.0412 40.2191C45.0662 40.2191 45.0892 40.2333 45.1007 40.2556C45.5139 41.053 46.2028 41.6221 46.7297 42.3105C46.7933 42.3937 46.8464 42.4844 46.8919 42.5787L48.0105 44.8974C48.0416 44.9618 48.1282 44.9737 48.1755 44.9202C48.1806 44.9145 48.1864 44.9094 48.1926 44.9049C48.6597 44.5707 48.9827 44.1132 49.1613 43.5078C49.4011 42.6951 49.1693 41.7614 48.6746 41.0735C48.3479 40.5332 47.6411 40.2618 47.2045 39.8306C47.2041 39.8303 47.2039 39.8298 47.2039 39.8294Z" fill="#21201D"/>
</g>
<defs>
<clipPath id="clip0_316_430">
<rect width="80" height="80" fill="white" transform="translate(29 24.5)"/>
</clipPath>
</defs>
</svg>
