<svg width="129" height="129" viewBox="0 0 129 129" fill="none" xmlns="http://www.w3.org/2000/svg">
<rect x="0.200195" y="0.5" width="128" height="128" rx="12" fill="#F0E3CA"/>
<path d="M112.2 64.5C112.2 78.3071 90.7099 89.5 64.2002 89.5C37.6905 89.5 16.2002 78.3071 16.2002 64.5C16.2002 50.6929 37.6905 39.5 64.2002 39.5C90.7099 39.5 112.2 50.6929 112.2 64.5Z" fill="#21201D"/>
<path fill-rule="evenodd" clip-rule="evenodd" d="M44.3236 56.8795C46.5255 56.8795 47.9936 57.2898 48.7274 58.1104C49.4606 58.9309 49.6354 60.34 49.2518 62.3357C48.8506 64.4143 48.0787 65.898 46.9349 66.7872C45.7911 67.6765 44.0503 68.1205 41.7135 68.1205H38.1872L40.3515 56.8795H44.3236ZM30.2002 79.5H35.9964L37.3719 72.3595H42.337C44.5277 72.3595 46.3302 72.1268 47.7449 71.662C49.1597 71.1973 50.446 70.4188 51.6032 69.3253C52.5745 68.4248 53.3605 67.4302 53.9623 66.3432C54.5635 65.2562 54.9905 64.0573 55.2433 62.746C55.8568 59.562 55.3941 57.082 53.8561 55.3059C52.3188 53.5292 49.8723 52.6411 46.519 52.6411H35.3723L30.2002 79.5ZM59.5005 45.5H65.2515L63.8767 52.6411H69.0007C72.2232 52.6411 74.448 53.2083 75.6715 54.3432C76.895 55.4782 77.2616 57.3176 76.7724 59.8604L74.3664 72.3595H68.5239L70.8114 60.4749C71.0712 59.1227 70.9762 58.2009 70.524 57.709C70.0718 57.2176 69.1092 56.9713 67.6382 56.9713H63.042L60.0794 72.3595H54.3283L59.5005 45.5ZM89.5685 56.8795C91.7704 56.8795 93.2379 57.2898 93.9723 58.1104C94.7055 58.9309 94.8797 60.34 94.4961 62.3357C94.0961 64.4143 93.3242 65.898 92.1798 66.7872C91.0366 67.6765 89.2952 68.1205 86.9596 68.1205H83.4333L85.597 56.8795H89.5685ZM75.4439 79.5H81.2408L82.6156 72.3595H87.5807C89.772 72.3595 91.5745 72.1268 92.9893 71.662C94.404 71.1973 95.6903 70.4188 96.8475 69.3253C97.8189 68.4248 98.6048 67.4302 99.206 66.3432C99.8073 65.2562 100.235 64.0573 100.488 62.746C101.101 59.562 100.638 57.082 99.101 55.3059C97.5625 53.5292 95.1166 52.6411 91.7634 52.6411H80.6167L75.4439 79.5Z" fill="#F0E3CA"/>
</svg>
