<svg width="165" height="30" viewBox="0 0 165 30" fill="none" xmlns="http://www.w3.org/2000/svg">
<path d="M15.0312 21.0391L0 14.7734V11.6016L15.0312 5.32031V9.44531L5.75 13.1797L15.0312 16.8984V21.0391Z" fill="#4B9B38"/>
<path d="M28.5156 0.320312L21.0156 26.5859H16.2344L23.7812 0.320312H28.5156Z" fill="#4B9B38"/>
<path d="M30.0156 0.804688H40.9844V5.86719H36.5938V10.6641H40.7031V15.4766H36.5938V21.0391H41.4219V26.1016H30.0156V0.804688Z" fill="#4B9B38"/>
<path d="M57.4844 5.36719V21.3359C57.4844 23.4922 57.4323 24.888 57.3281 25.5234C57.2344 26.1484 56.8854 26.8099 56.2812 27.5078C55.6771 28.2161 54.8333 28.7526 53.75 29.1172C52.6771 29.4922 51.3229 29.6797 49.6875 29.6797C47.6771 29.6797 46.0625 29.3359 44.8438 28.6484C43.625 27.9714 42.9948 26.6328 42.9531 24.6328H49.0781C49.0781 25.5495 49.4115 26.0078 50.0781 26.0078C50.5573 26.0078 50.875 25.8672 51.0312 25.5859C51.1875 25.3047 51.2656 24.7161 51.2656 23.8203V22.2578C50.724 22.7474 50.151 23.1172 49.5469 23.3672C48.9531 23.6172 48.3281 23.7422 47.6719 23.7422C46.5365 23.7422 45.599 23.513 44.8594 23.0547C44.1302 22.5964 43.6302 21.9974 43.3594 21.2578C43.0885 20.5078 42.9531 19.4453 42.9531 18.0703V10.5391C42.9531 8.57031 43.3073 7.15365 44.0156 6.28906C44.724 5.42448 45.8021 4.99219 47.25 4.99219C48.0417 4.99219 48.7604 5.15365 49.4062 5.47656C50.0625 5.79948 50.6458 6.28385 51.1562 6.92969L51.6094 5.36719H57.4844ZM51.1562 10.8672C51.1562 9.91927 51.099 9.3151 50.9844 9.05469C50.8802 8.79427 50.6406 8.66406 50.2656 8.66406C49.901 8.66406 49.6406 8.8151 49.4844 9.11719C49.3385 9.40885 49.2656 9.99219 49.2656 10.8672V17.8359C49.2656 18.763 49.3229 19.3672 49.4375 19.6484C49.5521 19.9193 49.7917 20.0547 50.1562 20.0547C50.5729 20.0547 50.8438 19.888 50.9688 19.5547C51.0938 19.2214 51.1562 18.4661 51.1562 17.2891V10.8672Z" fill="#F0E3CA"/>
<path d="M66.2344 0.804688V26.1016H59.7344V0.804688H66.2344Z" fill="#F0E3CA"/>
<path d="M82.8125 16.1016H74.6406V20.5859C74.6406 21.5234 74.7083 22.1276 74.8438 22.3984C74.9792 22.6693 75.2396 22.8047 75.625 22.8047C76.1042 22.8047 76.4219 22.6276 76.5781 22.2734C76.7448 21.9089 76.8281 21.2109 76.8281 20.1797V17.4453H82.8125V18.9766C82.8125 20.2578 82.7292 21.2422 82.5625 21.9297C82.4062 22.6172 82.0312 23.3516 81.4375 24.1328C80.8438 24.9141 80.0885 25.5026 79.1719 25.8984C78.2656 26.2839 77.125 26.4766 75.75 26.4766C74.4167 26.4766 73.2396 26.2839 72.2188 25.8984C71.1979 25.513 70.401 24.987 69.8281 24.3203C69.2656 23.6432 68.875 22.9036 68.6562 22.1016C68.4375 21.2891 68.3281 20.112 68.3281 18.5703V12.5234C68.3281 10.7109 68.5729 9.28385 69.0625 8.24219C69.5521 7.1901 70.3542 6.38802 71.4688 5.83594C72.5833 5.27344 73.8646 4.99219 75.3125 4.99219C77.0833 4.99219 78.5417 5.33073 79.6875 6.00781C80.8438 6.67448 81.651 7.5651 82.1094 8.67969C82.5781 9.78385 82.8125 11.3411 82.8125 13.3516V16.1016ZM76.4844 12.7266V11.2109C76.4844 10.138 76.4271 9.44531 76.3125 9.13281C76.1979 8.82031 75.9635 8.66406 75.6094 8.66406C75.1719 8.66406 74.901 8.79948 74.7969 9.07031C74.6927 9.33073 74.6406 10.0443 74.6406 11.2109V12.7266H76.4844Z" fill="#F0E3CA"/>
<path d="M85.0781 0.804688H91.7031C93.4948 0.804688 94.8698 0.945312 95.8281 1.22656C96.7969 1.50781 97.5208 1.91406 98 2.44531C98.4896 2.97656 98.8177 3.6224 98.9844 4.38281C99.1615 5.13281 99.25 6.29948 99.25 7.88281V10.0859C99.25 11.7005 99.0833 12.8776 98.75 13.6172C98.4167 14.3568 97.8021 14.9245 96.9062 15.3203C96.0208 15.7161 94.8594 15.9141 93.4219 15.9141H91.6562V26.1016H85.0781V0.804688ZM91.6562 5.13281V11.5703C91.8438 11.5807 92.0052 11.5859 92.1406 11.5859C92.7448 11.5859 93.1615 11.4401 93.3906 11.1484C93.6302 10.8464 93.75 10.2266 93.75 9.28906V7.21094C93.75 6.34635 93.6146 5.78385 93.3438 5.52344C93.0729 5.26302 92.5104 5.13281 91.6562 5.13281Z" fill="#F0E3CA"/>
<path d="M115.25 16.1016H107.078V20.5859C107.078 21.5234 107.146 22.1276 107.281 22.3984C107.417 22.6693 107.677 22.8047 108.062 22.8047C108.542 22.8047 108.859 22.6276 109.016 22.2734C109.182 21.9089 109.266 21.2109 109.266 20.1797V17.4453H115.25V18.9766C115.25 20.2578 115.167 21.2422 115 21.9297C114.844 22.6172 114.469 23.3516 113.875 24.1328C113.281 24.9141 112.526 25.5026 111.609 25.8984C110.703 26.2839 109.562 26.4766 108.188 26.4766C106.854 26.4766 105.677 26.2839 104.656 25.8984C103.635 25.513 102.839 24.987 102.266 24.3203C101.703 23.6432 101.312 22.9036 101.094 22.1016C100.875 21.2891 100.766 20.112 100.766 18.5703V12.5234C100.766 10.7109 101.01 9.28385 101.5 8.24219C101.99 7.1901 102.792 6.38802 103.906 5.83594C105.021 5.27344 106.302 4.99219 107.75 4.99219C109.521 4.99219 110.979 5.33073 112.125 6.00781C113.281 6.67448 114.089 7.5651 114.547 8.67969C115.016 9.78385 115.25 11.3411 115.25 13.3516V16.1016ZM108.922 12.7266V11.2109C108.922 10.138 108.865 9.44531 108.75 9.13281C108.635 8.82031 108.401 8.66406 108.047 8.66406C107.609 8.66406 107.339 8.79948 107.234 9.07031C107.13 9.33073 107.078 10.0443 107.078 11.2109V12.7266H108.922Z" fill="#F0E3CA"/>
<path d="M123.75 5.36719L123.641 7.27344C124.099 6.51302 124.656 5.94531 125.312 5.57031C125.979 5.1849 126.745 4.99219 127.609 4.99219C128.693 4.99219 129.578 5.2474 130.266 5.75781C130.953 6.26823 131.396 6.91406 131.594 7.69531C131.792 8.46615 131.891 9.75781 131.891 11.5703V26.1016H125.578V11.7422C125.578 10.3151 125.531 9.44531 125.438 9.13281C125.344 8.82031 125.083 8.66406 124.656 8.66406C124.208 8.66406 123.927 8.84635 123.812 9.21094C123.698 9.5651 123.641 10.5234 123.641 12.0859V26.1016H117.328V5.36719H123.75Z" fill="#F0E3CA"/>
<path d="M147.672 5.36719L145.109 13.6328L148.438 26.1016H142.359L140.391 17.0703V26.1016H134.078V0.804688H140.391V11.4297L142.359 5.36719H147.672Z" fill="#F0E3CA"/>
<path d="M149.281 5.32031L164.312 11.5703V14.7578L149.281 21.0391V16.9141L158.562 13.1797L149.281 9.46094V5.32031Z" fill="#4B9B38"/>
</svg>
